<svg xmlns="http://www.w3.org/2000/svg" xmlns:xlink="http://www.w3.org/1999/xlink" width="577.849" height="426.375" viewBox="0 0 577.849 426.375">
  <defs>
    <linearGradient id="linear-gradient" x1="0.5" x2="0.5" y2="1" gradientUnits="objectBoundingBox">
      <stop offset="0" stop-color="#093f45"/>
      <stop offset="1" stop-color="#093f45"/>
    </linearGradient>
    <linearGradient id="linear-gradient-3" x1="0.5" x2="0.5" y2="1" gradientUnits="objectBoundingBox">
      <stop offset="0" stop-color="#0e575f"/>
      <stop offset="1" stop-color="#093f45"/>
    </linearGradient>
    <linearGradient id="linear-gradient-4" x1="0.856" y1="0.344" x2="0" y2="0.344" gradientUnits="objectBoundingBox">
      <stop offset="0" stop-color="#ecaaa6"/>
      <stop offset="1" stop-color="#ffc4c4"/>
    </linearGradient>
    <linearGradient id="linear-gradient-5" x1="0.5" x2="0.5" y2="1" gradientUnits="objectBoundingBox">
      <stop offset="0" stop-color="#f87171"/>
      <stop offset="1" stop-color="#f3abab"/>
    </linearGradient>
    <linearGradient id="linear-gradient-7" x1="0.5" x2="0.5" y2="1" gradientUnits="objectBoundingBox">
      <stop offset="0" stop-color="#ddab45"/>
      <stop offset="1" stop-color="#ddab45"/>
    </linearGradient>
    <linearGradient id="linear-gradient-8" x1="0.5" x2="0.5" y2="1" gradientUnits="objectBoundingBox">
      <stop offset="0" stop-color="#fdcb69"/>
      <stop offset="1" stop-color="#d0a43d"/>
    </linearGradient>
    <linearGradient id="linear-gradient-11" y1="1" y2="0" xlink:href="#linear-gradient-5"/>
    <linearGradient id="linear-gradient-12" x1="0.5" y1="1" x2="0.5" gradientUnits="objectBoundingBox">
      <stop offset="0" stop-color="#29305d"/>
      <stop offset="0.03" stop-color="#765c2b"/>
      <stop offset="0.54" stop-color="#82652f"/>
      <stop offset="1" stop-color="#8d6d32"/>
    </linearGradient>
    <linearGradient id="linear-gradient-14" x1="0.856" y1="0.656" y2="0.656" xlink:href="#linear-gradient-4"/>
    <linearGradient id="linear-gradient-15" x1="0.5" x2="0.5" y2="1" gradientUnits="objectBoundingBox">
      <stop offset="0" stop-color="#fecc6a"/>
      <stop offset="1" stop-color="#d0a43d"/>
    </linearGradient>
  </defs>
  <g id="Illustration" transform="translate(-0.002)">
    <g id="_2.-Send-the-application" data-name="2.-Send-the-application" transform="translate(0.002)">
      <g id="Groupe_845" data-name="Groupe 845" transform="translate(0)">
        <rect id="Rectangle-Copy" width="501.068" height="38.903" rx="19.451" transform="translate(7.779 387.472)" fill="#f2f2f2"/>
        <rect id="Rectangle" width="454.385" height="230.305" rx="115.152" transform="translate(25.674 94.145)" fill="#f2f2f2"/>
        <rect id="Rectangle-2" data-name="Rectangle" width="155.611" height="73.137" rx="36.569" transform="translate(281.655)" fill="#f2f2f2"/>
        <g id="Email" transform="translate(76.946 30.344)">
          <rect id="Card-Copy" width="210.075" height="131.492" rx="13" transform="translate(51.432 13.227)" fill="#e1e8e8" style="mix-blend-mode: multiply;isolation: isolate"/>
          <rect id="Card" width="210.075" height="131.492" rx="13" transform="translate(62.324)" fill="#fff"/>
          <path id="Path-27" d="M38.2,1.5H0v-3H38.2Z" transform="translate(0 37.245)" fill="#093f45"/>
          <path id="Path-27-Copy" d="M22.643,1.5H0v-3H22.643Z" transform="translate(15.561 64.477)" fill="#093f45"/>
          <path id="Path-27-Copy-2" d="M38.9,1.5H0v-3H38.9Z" transform="translate(0 91.709)" fill="#093f45"/>
          <path id="Path-24" d="M186.038,81.626a1.5,1.5,0,0,1-.7-.175L80.3,25.752A1.5,1.5,0,0,1,81.7,23.1L186.03,78.424,288.224,23.108a1.5,1.5,0,0,1,1.428,2.638l-102.9,55.7A1.5,1.5,0,0,1,186.038,81.626Z" transform="translate(-18.676 -5.421)" fill="#53c5cd"/>
        </g>
        <g id="Chair-low-1" transform="translate(0 252.09)">
          <path id="Path-8" d="M5.313,0H76.657l43.527,76.623H35.636Z" transform="translate(-1.181 0)" fill="#f8f9ff" fill-rule="evenodd"/>
          <path id="Path-19-Copy" d="M216.858,174.316h-71.2A18.729,18.729,0,0,1,127.733,150.1l14.7-48.149,1.913.584-14.7,48.149a16.74,16.74,0,0,0,16.01,21.629h71.2a16.74,16.74,0,0,0,15.878-22.042L216.8,102.562l1.9-.633,15.932,47.712a18.73,18.73,0,0,1-17.775,24.675Z" transform="translate(-28.391 -22.693)" fill="#b0edf0"/>
          <path id="Path-19" d="M120.928,174.316h-71.2A18.729,18.729,0,0,1,31.8,150.1l14.7-48.149,1.913.584-14.7,48.149a16.74,16.74,0,0,0,16.01,21.629h71.2a16.74,16.74,0,0,0,15.878-22.042l-15.932-47.712,1.9-.633L138.7,149.641a18.73,18.73,0,0,1-17.775,24.675Z" transform="translate(-7.1 -22.693)" fill="#60bbc1"/>
          <path id="Rectangle-3" data-name="Rectangle" d="M149.134,97.83h80.835a3.6,3.6,0,1,1,0,7.2H149.134Z" transform="translate(-33.101 -21.713)" fill="#c9d4d4" fill-rule="evenodd"/>
          <path id="Rectangle-4" data-name="Rectangle" d="M4.134,0l26.68,62.95a21.941,21.941,0,0,0,20.2,13.379h66.657a3.494,3.494,0,1,1,0,6.988H46.386A21.941,21.941,0,0,1,26.225,70.034L.686,10.566A8.417,8.417,0,0,1,4.134,0Z" transform="translate(-0.002 0)" fill="#c9d4d4" fill-rule="evenodd"/>
          <path id="Path-62" d="M.018,2.333l-.036-2L73.977-1l.036,2Z" transform="translate(128.733 120.155)" fill="#60bbc1"/>
        </g>
        <g id="Chair-low-2" transform="translate(500.287 410.036) rotate(180)">
          <path id="Path-8-2" data-name="Path-8" d="M0,76.623H58.848a10.115,10.115,0,0,0,9.4-6.373L96.215,0H30.323Z" transform="translate(4.132 87.547)" fill="#f8f9ff" fill-rule="evenodd"/>
          <path id="Path-19-Copy-2" data-name="Path-19-Copy" d="M74.082,81.148l-1.946-.46,13.956-59.1A16.74,16.74,0,0,0,69.8,1H17.743A16.74,16.74,0,0,0,1.381,21.273L14.217,80.707l-1.955.422L-.574,21.7A18.74,18.74,0,0,1,17.743-1H69.8A18.74,18.74,0,0,1,88.039,22.046Z" transform="translate(88.976 1.365)" fill="#b0edf0"/>
          <path id="Path-19-2" data-name="Path-19" d="M71.451,86.572l-1.956-.416L83.286,21.217A16.74,16.74,0,0,0,66.912,1H17.743A16.74,16.74,0,0,0,1.31,20.932L13.983,86.174l-1.963.381L-.653,21.313A18.74,18.74,0,0,1,17.743-1H66.912A18.74,18.74,0,0,1,85.243,21.633Z" transform="translate(21.668)" fill="#60bbc1"/>
          <path id="Path-39" d="M70.908,1H0V-1H70.908Z" transform="translate(102.702 38.019)" fill="#60bbc1"/>
          <path id="Rectangle-5" data-name="Rectangle" d="M0,7H80.934a3.5,3.5,0,1,0,0-7H0Z" transform="translate(92.691 80.852)" fill="#c9d4d4" fill-rule="evenodd"/>
          <path id="Rectangle-6" data-name="Rectangle" d="M4.132,83.318l26.68-62.95a21.941,21.941,0,0,1,20.2-13.379H94.329a3.494,3.494,0,0,0,0-6.988H46.384A21.941,21.941,0,0,0,26.223,13.283L.684,72.752A8.417,8.417,0,0,0,4.132,83.318Z" transform="translate(0 80.852)" fill="#c9d4d4" fill-rule="evenodd"/>
        </g>
        <g id="Woman-1" transform="translate(49.017 169.885)">
          <g id="Group-8" transform="translate(15.723 0)">
            <path id="Path-4" d="M4.146,0Q12.52,1.678,14.733,17.354C16.946,33.03,30.68,38.211,23.81,50.466Q16.94,62.721,0,54.636Z" transform="translate(36.666 5.367) rotate(5)" fill="#765c2b" fill-rule="evenodd"/>
            <path id="Path-3" d="M37.873,11.561q3.2-6.455-.882-9.767C32.91-1.517,16.536-1.516,10.913,13.009S13.261,35.5,4.024,43.33,2.074,69.11,19.529,70.723s17.843-7.236,16.107-17.772Q33.9,42.416,37.873,11.561Z" transform="translate(2.475 0) rotate(2)" fill="#765c2b" fill-rule="evenodd"/>
          </g>
          <g id="Group-10" transform="translate(173.9 213.156) rotate(-11)">
            <path id="Path-20" d="M1.533,7.782.642,12.092a10.179,10.179,0,0,0-.034,3.954,3.655,3.655,0,0,0,2.25,2.72l13.75,5.425h5.668L11.8,7.678,8.348,0,0,3.193Z" transform="translate(0.893 0)" fill="#f3abab" fill-rule="evenodd"/>
            <path id="Path-21" d="M2.427,0a9.938,9.938,0,0,0,6.4,9.286l5.98,2.281a3.253,3.253,0,0,0,4.112-1.673h0l5.457,7.74a1.459,1.459,0,0,1-1.193,2.3h-.3a19.622,19.622,0,0,1-4.94-.632,16.059,16.059,0,0,1-4.55-1.976L3.67,11.173h0V16.41H1.693L.624,12.741A15.639,15.639,0,0,1,2.427,0Z" transform="translate(0 7.782)" fill-rule="evenodd" fill="url(#linear-gradient)"/>
          </g>
          <g id="Group-6" transform="translate(26.067 78.851)">
            <g id="Group-10-2" data-name="Group-10" transform="translate(86.009 111.264)">
              <path id="Path-20-2" data-name="Path-20" d="M4.165,0,.889,6.285A4.9,4.9,0,0,0,.844,10.73,6.475,6.475,0,0,0,4.27,13.878l13.306,5.25h5.668L11.491,4.782l.682-3.262Z" transform="translate(-0.075)" fill="#f3abab" fill-rule="evenodd"/>
              <path id="Path-21-2" data-name="Path-21" d="M2.428,3.493a9.938,9.938,0,0,0,6.4,9.286l6.547,2.5a2.455,2.455,0,0,0,3.159-1.394h0L24.26,21.21a1.372,1.372,0,0,1-1.081,2.217h-.3a19.622,19.622,0,0,1-4.94-.632,16.059,16.059,0,0,1-4.55-1.976L3.67,14.666h0V19.9H1.693L.625,16.234a15.639,15.639,0,0,1,1.8-12.741Z" transform="translate(-0.001 -0.775)" fill-rule="evenodd" fill="url(#linear-gradient)"/>
            </g>
            <path id="Path-13" d="M56.687,34.418,95.435,4.731a22.958,22.958,0,0,1,27.326-.443,23.6,23.6,0,0,1,8.814,26.148l-25.839,83.745h0L93.78,110.31q4.592-57.357,7.28-66.408t6.333-13.972L79.641,63.623H32.42l3.539-29.205Z" transform="translate(-7.195 0.002)" fill="#093f45" fill-rule="evenodd"/>
            <g id="Group-5" transform="translate(0 27.738)">
              <path id="Path-11" d="M6.421,3.966Q-6.929,27.683,7.476,43.324t84.7,5.9Q100.7,69.178,110.14,79.072t40.072,35.016l10.959-7.756q-44.983-59.15-55.232-73.85t-65.373-14.7L33.9,0Z" transform="translate(0 0)" fill-rule="evenodd" fill="url(#linear-gradient-3)"/>
              <path id="Path-14" d="M153.4,115.486c-19.16-17.281-32.184-29.113-38.71-35.17a59.7,59.7,0,0,1-10.137-13.4A177.109,177.109,0,0,1,94.2,45.576c-18.152,2.187-33.5,3.3-45.626,3.3a136.482,136.482,0,0,1-16.13-.838A53.249,53.249,0,0,1,20.86,45.5a19.275,19.275,0,0,1-6.082-3.474,15.549,15.549,0,0,1-3.929-5.225,23.86,23.86,0,0,1-1.7-12.043A63.975,63.975,0,0,1,13.124,8.416l.939.344a63,63,0,0,0-3.917,16.084,22.889,22.889,0,0,0,1.61,11.539,14.555,14.555,0,0,0,3.677,4.891A18.282,18.282,0,0,0,21.2,44.564c6.028,2.195,15.236,3.308,27.367,3.308,12.169,0,27.607-1.122,45.882-3.334l.377-.046.145.351A177.235,177.235,0,0,0,105.418,66.4a58.741,58.741,0,0,0,9.955,13.178c6.523,6.053,19.543,17.883,38.7,35.16Z" transform="translate(-2.115 -1.906)" fill="#fff"/>
            </g>
          </g>
          <g id="Group-7" transform="translate(0 17.965)">
            <g id="Group-2" transform="translate(92.699 0)">
              <path id="Path" d="M42.469,10.311q.736.672.278,2.226a1.414,1.414,0,0,1,1.76.254,1.717,1.717,0,0,1,.163,1.964q1.2-.213,1.512,1.088a5.181,5.181,0,0,1-1.387,4.092A10.535,10.535,0,0,1,41.267,23q-4.184,2.406-6.557,2.584L16.364,60.183,0,62.982Q17.136,36.411,26.013,23q2.188-3.3,7.181-10.157a17.733,17.733,0,0,1,1.77-2.256L44.5.272a.847.847,0,0,1,1.292.056,1.439,1.439,0,0,1,.086,1.64l-5.1,8.213A1.317,1.317,0,0,1,42.469,10.311Z" transform="translate(0 0)" fill="#ffc4c4" fill-rule="evenodd"/>
              <path id="Path-12" d="M45.121,14.845q2.564-1.741,4.2-.87c.907.482,1.545,1.918,2.427,3.593a22.865,22.865,0,0,1,1.774,3.4c0,.958-1.687.6-2.9-.431q-1.21-1.036-2.049-1.87Q47.8,22.947,45.841,24.7" transform="translate(-10.014 -3.037)" fill-rule="evenodd" fill="url(#linear-gradient-4)"/>
            </g>
            <path id="Path-9" d="M83.579,34.066l2.79,1.609a19.607,19.607,0,0,1,7.558,7.858l15.162,28.826h0l25.3-43.317,11.966,6.994L124.19,84.1a15.768,15.768,0,0,1-12.841,9.095A15.584,15.584,0,0,1,97.113,86.6L84.387,68.377h0Z" transform="translate(-18.55 -6.446)" fill="#e1e8e8" fill-rule="evenodd"/>
            <path id="Path-2" data-name="Path" d="M97.866,91.889q-.078-.108-.155-.217L86.242,75.25l6.246-23.4q7.487,8.061,6.485,24.91Q98.388,86.622,97.866,91.889Z" transform="translate(-19.141 -11.509)" fill="#c4cfcf" fill-rule="evenodd"/>
            <g id="Group-3" transform="translate(22.496 26.692)">
              <path id="Path-6" d="M14.381.491Q8.423,1.382,0,5.854L5.377,32.328l5.671,19.626-6,16.66H53.062q-2.506-3.825-2.506-10.583t.7-20.147q6.281-1.558,4.761-9.731c-.3-1.59-1.769-4.463-2.267-6.055A171.9,171.9,0,0,0,46.724,4.348Q44.164-1.461,29.1.491A60.462,60.462,0,0,0,14.381.491Z" transform="translate(0)" fill="#e1e8e8" fill-rule="evenodd"/>
              <path id="Path-3-2" data-name="Path" d="M52.55,45.914q-.7,13.389-.7,20.147t2.506,10.583H6.343q5.45-13.794,5.4-17.339-.038-2.9-5.927-23.123c5.053,6.7,6.458,10.175,12.211,10.752,4.973.5,15.133-2.471,22.57-1.744Q45.56,45.674,52.55,45.914Z" transform="translate(-1.292 -8.03)" fill="#d7dfdf" fill-rule="evenodd"/>
            </g>
            <path id="Path-10" d="M64.823,117.5l17.293,6.7q12.717,2.111,15.788,6.378h-26.8L60.963,124.2Z" transform="translate(-13.531 -26.079)" fill="#f3abab" fill-rule="evenodd"/>
            <path id="Path-7" d="M23.474,41.21a16.733,16.733,0,0,0-8.433,8.749L1.291,82.9A16.713,16.713,0,0,0,2.21,97.641a17.459,17.459,0,0,0,12.206,8.534l43.036,7.364h0l4.109-12.72L17.553,87.3l8.566-15.337A25.209,25.209,0,0,0,27.129,49.4L23.474,41.21Z" transform="translate(-0.001 -9.146)" fill="#e1e8e8" fill-rule="evenodd"/>
          </g>
          <g id="Group" transform="translate(34.635 7.668) rotate(2)">
            <path id="Path-2-2" data-name="Path-2" d="M0,0,2.968,10.549A9.785,9.785,0,0,1,1.121,19.4h0l5.705,3.4a13.909,13.909,0,0,0,9.349,1.782,5.391,5.391,0,0,0,4.5-5.851L20.2,13.916h0a5.222,5.222,0,0,1-4.257-4.083l-1.1-5.28h0Z" transform="translate(6.075 20.846) rotate(7)" fill="#f3abab" fill-rule="evenodd"/>
            <path id="Path-4-2" data-name="Path" d="M12,3.359l.421,5a6.59,6.59,0,0,0,.743,2.9C8.544,10.48,2.683,6.466,0,0Z" transform="translate(8.416 23.826)" fill-rule="evenodd" fill="url(#linear-gradient-5)"/>
            <path id="Path-5" data-name="Path" d="M27.484,7.9l1.372,15.585a6.72,6.72,0,0,1-6.1,7.283l-.122.01-1.052.073a13.071,13.071,0,0,1-9.954-3.6L5.787,21.656h0L2.876,20.6A4.355,4.355,0,0,1,0,16.508v-.14a2.562,2.562,0,0,1,2.893-2.54L4.225,14a3.175,3.175,0,0,1,2.344,1.57l.494.863a1,1,0,0,0,.869.5.58.58,0,0,0,.58-.58v-4.21h0l7.871-4.3A12.214,12.214,0,0,0,22.4,0h0A10.107,10.107,0,0,1,27.484,7.9Z" transform="translate(0 0)" fill="#ffc4c4" fill-rule="evenodd"/>
            <rect id="Rectangle-7" data-name="Rectangle" width="5.143" height="2.333" rx="1.166" transform="translate(24.315 8.412)" fill="#29305d"/>
            <rect id="Rectangle-Copy-2" width="5.143" height="2.333" rx="1.166" transform="translate(14.029 8.412)" fill="#29305d"/>
            <ellipse id="Oval" cx="0.935" cy="0.933" rx="0.935" ry="0.933" transform="translate(14.815 12.143)" fill="#29305d"/>
            <ellipse id="Oval-Copy-13" cx="0.935" cy="0.933" rx="0.935" ry="0.933" transform="translate(24.166 12.143)" fill="#29305d"/>
            <path id="Oval-2" data-name="Oval" d="M4.909-1A5.9,5.9,0,1,1-1,4.9,5.911,5.911,0,0,1,4.909-1Zm0,9.8A3.9,3.9,0,1,0,1,4.9,3.908,3.908,0,0,0,4.909,8.8Z" transform="translate(23.937 8.99)" fill="#fff"/>
            <path id="Path-17" d="M.017,10.089l-.035-1,1.031-.036.043,0a.434.434,0,0,0,.372-.488L.279.067,1.27-.067,2.419,8.428a1.435,1.435,0,0,1-1.229,1.613c-.047.006-.095.01-.142.012Z" transform="translate(22.698 11.611)" fill="#f77e7e"/>
            <path id="Path-18" d="M1.813,1.06A3.337,3.337,0,0,1-.309.393a.5.5,0,0,1-.085-.7.5.5,0,0,1,.7-.085,3.045,3.045,0,0,0,2.586.325.5.5,0,0,1,.213.977A6.107,6.107,0,0,1,1.813,1.06Z" transform="translate(19.697 22.854)" fill="#f77e7e"/>
            <path id="Oval-Copy-12" d="M4.909-1A5.9,5.9,0,1,1-1,4.9,5.911,5.911,0,0,1,4.909-1Zm0,9.8A3.9,3.9,0,1,0,1,4.9,3.908,3.908,0,0,0,4.909,8.8Z" transform="translate(10.845 8.99)" fill="#fff"/>
            <path id="Path-15" d="M0,1.959a1,1,0,0,1-.526-.15A1,1,0,0,1-.85.432,3.01,3.01,0,0,1,1.723-1H8.058a1,1,0,0,1,1,1,1,1,0,0,1-1,1H1.723a1.022,1.022,0,0,0-.874.486A1,1,0,0,1,0,1.959Z" transform="translate(2.787 12.529)" fill="#fff"/>
            <path id="Path-16" d="M.835,1.509-.835.409A3.4,3.4,0,0,1,2.228-1,3.4,3.4,0,0,1,5.291.409l-1.67,1.1C3.538,1.383,3.285,1,2.228,1S.918,1.383.835,1.509Z" transform="translate(20.113 10.636)" fill="#fff"/>
            <path id="Path-5-2" data-name="Path-5" d="M3.056,4.2q-1.212-1.03,0-2.517C4.268.194,0-.975,0,1.194Q0,3.362,3.056,4.2Z" transform="translate(1.87 14.929)" fill-rule="evenodd" fill="url(#linear-gradient-5)"/>
          </g>
          <g id="Group-4" transform="translate(41.268 91.677)">
            <path id="Rectangle-8" data-name="Rectangle" d="M1.166,0H34.835a1.166,1.166,0,1,1,0,2.333H1.166A1.166,1.166,0,0,1,1.166,0Z" transform="translate(0 30.791)" fill="#ddab45"/>
            <path id="Rectangle-Copy-2-2" data-name="Rectangle-Copy" d="M43.806,0H82.948a2.334,2.334,0,0,1,2.267,2.891L78.221,31.347a2.334,2.334,0,0,1-2.267,1.777H36.812a2.334,2.334,0,0,1-2.267-2.891L41.539,1.777A2.334,2.334,0,0,1,43.806,0Z" transform="translate(-7.652 0)" fill-rule="evenodd" fill="url(#linear-gradient-7)"/>
            <path id="Rectangle-9" data-name="Rectangle" d="M46.21,0H85.352a2.334,2.334,0,0,1,2.267,2.891L80.625,31.347a2.334,2.334,0,0,1-2.267,1.777H39.216a2.334,2.334,0,0,1-2.267-2.891L43.943,1.777A2.334,2.334,0,0,1,46.21,0Z" transform="translate(-8.186 0)" fill-rule="evenodd" fill="url(#linear-gradient-8)"/>
            <ellipse id="Oval-3" data-name="Oval" cx="1.869" cy="2.8" rx="1.869" ry="2.8" transform="translate(55.846 13.06) rotate(27)" fill="#fff"/>
          </g>
        </g>
        <g id="Man-4" transform="translate(320.857 74.634) rotate(17)">
          <g id="Group-21" transform="translate(42.587 131.617) rotate(10)">
            <path id="Path-37-Copy" d="M28.439,0q-2.085,8.028-15.31,10.8Q.666,13.41,0,20.3a.778.778,0,0,0,.78.852l41.641-.314h0V4.869Z" transform="translate(0 157.9) rotate(-11)" fill-rule="evenodd" fill="url(#linear-gradient)"/>
            <path id="Path-36-Copy" d="M96.668,0l5.062,16.175A32.678,32.678,0,0,1,84.241,55.6L42.274,74.98h0L18.428,156.711,0,153.892,13.253,78.541A37.347,37.347,0,0,1,29.943,53.529L68.609,28.85h0l-2.6-24.168Z" transform="translate(25.405 0)" fill="#c4a18a" fill-rule="evenodd"/>
            <path id="Path-37" d="M28.439,0q-2.085,8.028-15.31,10.8Q.666,13.41,0,20.3a.778.778,0,0,0,.78.852l41.641-.314h0V4.869Z" transform="translate(28.124 152.36) rotate(-11)" fill-rule="evenodd" fill="url(#linear-gradient)"/>
            <path id="Path-36" d="M93.865,0l5.062,16.175A32.678,32.678,0,0,1,81.438,55.6L39.472,74.98h0L21.157,151.373,0,147.335,11.16,76.018A37.347,37.347,0,0,1,23.805,53.391L63.2,19.748h0V4.683Z" transform="translate(53.139 0.324)" fill="#d3b5a1" fill-rule="evenodd"/>
            <path id="Path-38" d="M.488,146.358l-.976-.216L17.361,65.475l.218-.106c19.888-9.625,35.8-17.281,47.3-22.754A16.87,16.87,0,0,0,71.6,37a21.184,21.184,0,0,0,3.346-8.9,44.213,44.213,0,0,0-.061-12.287A97.248,97.248,0,0,0,71.352.145l.957-.291a98.243,98.243,0,0,1,3.564,15.831,45.2,45.2,0,0,1,.057,12.568,22.17,22.17,0,0,1-3.513,9.314A17.858,17.858,0,0,1,65.3,43.518C53.853,48.97,38.017,56.589,18.232,66.164Z" transform="translate(71.058 4.674)" fill="#fff"/>
          </g>
          <g id="Group-20" transform="translate(25.711 0) rotate(9)">
            <g id="Group-19" transform="translate(59.742 30.072) rotate(-25)">
              <path id="Path-33" d="M24.062,0Q9.411,2.258,0,6.531L6.187,39.174l4.173,54.04,60.129,2.36q.667-38.634.668-52.593h0A42.788,42.788,0,0,0,47.076,4.5L41.968,2.016h0Z" transform="translate(0 52.596)" fill="#53c5cd" fill-rule="evenodd"/>
              <path id="Path-6-2" data-name="Path" d="M4.249,75.049.076,21.009,0,20.609Q2.921,26.8,12.565,27.286c13.309.677,13-5.763,18.119-15.848Q35.8,1.354,57.314,0q-2.477,34.211-9.147,46.943c-4.073,7.776-8,22.561-18.837,29.123Z" transform="translate(6.111 70.762)" fill="#38a0a8" fill-rule="evenodd"/>
              <g id="Group-2-2" data-name="Group" transform="translate(55.917 64.013) rotate(178)">
                <path id="Path-2-3" data-name="Path-2" d="M0,25.919l3.109-11.04A10.24,10.24,0,0,0,1.172,5.611h0L7.151,2.054a14.6,14.6,0,0,1,9.8-1.865,5.652,5.652,0,0,1,4.72,6.134l-.5,5.03h0a5.472,5.472,0,0,0-4.463,4.279l-1.155,5.523h0Z" transform="translate(10.547 2.645) rotate(-7)" fill="#f3abab" fill-rule="evenodd"/>
                <path id="Path-7-2" data-name="Path" d="M12.577,8.271l.441-5.236A6.892,6.892,0,0,1,13.8,0C8.957.816,2.813,5.019,0,11.788Z" transform="translate(16.16 13.462)" fill-rule="evenodd" fill="url(#linear-gradient-11)"/>
                <path id="Path-31" d="M4.312.735,0,15.9l30.461,3.269-.044-4.575L11.006,0Z" transform="translate(5.063 31.946)" fill-rule="evenodd" fill="url(#linear-gradient-12)"/>
                <path id="Path-8-3" data-name="Path" d="M28.326,29.614Q29.372,19.124,30.307,7.8A7.1,7.1,0,0,0,23.815.135L23.724.128l-1.388-.1a13.071,13.071,0,0,0-9.947,3.6L6.067,9.682h0l-3.056,1.1A4.558,4.558,0,0,0,0,15.072v.142a2.686,2.686,0,0,0,3.033,2.664l1.4-.182a3.327,3.327,0,0,0,2.456-1.643l.518-.9a1.05,1.05,0,0,1,.911-.528.608.608,0,0,1,.608.608v4.407h0a8.421,8.421,0,0,1,4.309,3.346q1.143,2.024,2.876,5.445a1.794,1.794,0,0,1,2.493-.983q1.662.637,6.006,4.24Q26.572,28.368,28.326,29.614Z" transform="translate(7.336 17.839)" fill="#ffc4c4" fill-rule="evenodd"/>
                <rect id="Rectangle-10" data-name="Rectangle" width="5.392" height="2.442" rx="1.221" transform="translate(32.828 38.945)" fill="#765c2b"/>
                <rect id="Rectangle-Copy-2-3" data-name="Rectangle-Copy-2" width="5.392" height="2.442" rx="1.221" transform="translate(22.044 38.945)" fill="#765c2b"/>
                <ellipse id="Oval-4" data-name="Oval" cx="0.98" cy="0.977" rx="0.98" ry="0.977" transform="translate(24.634 35.981)" fill="#4d3b1a"/>
                <ellipse id="Oval-Copy-13-2" data-name="Oval-Copy-13" cx="0.98" cy="0.977" rx="0.98" ry="0.977" transform="translate(34.438 35.981)" fill="#4d3b1a"/>
                <path id="Path-17-2" data-name="Path-17" d="M1.307,10.106.316,9.972,1.528,1.031A.434.434,0,0,0,1.156.543l-.043,0L-.017.5l.035-1L1.148-.46c.047,0,.1.006.143.012A1.435,1.435,0,0,1,2.519,1.165Z" transform="translate(31.133 28)" fill="#f77e7e"/>
                <path id="Path-18-2" data-name="Path-18" d="M0,1.087A.5.5,0,0,1-.393.9a.5.5,0,0,1,.085-.7A4.144,4.144,0,0,1,3.253-.342.5.5,0,0,1,3.04.635,3.218,3.218,0,0,0,.308.98.5.5,0,0,1,0,1.087Z" transform="translate(27.986 25.681)" fill="#f77e7e"/>
                <path id="Path-5-3" data-name="Path-5" d="M3.2,0q-1.271,1.078,0,2.635C4.475,4.192,0,5.417,0,3.146Q0,.876,3.2,0Z" transform="translate(9.297 30.169)" fill-rule="evenodd" fill="url(#linear-gradient-11)"/>
                <path id="Path-32" d="M3.444,16.73q2.162,2.057,2.956-3,10.065,3.757,9.135,0Q21.314,20.2,25.5,19.287t7.248-5.572q6.11-6.9.808-10.211C28.253.191,15.279-1.423,10.834,1.6,3.726-1.436.639,7.788.071,11.828Q-.5,15.867,3.444,16.73Z" transform="translate(34.057 64.052) rotate(-161)" fill="#765c2b" fill-rule="evenodd"/>
              </g>
            </g>
            <g id="Group-2-3" data-name="Group-2" transform="matrix(-0.97, 0.242, -0.242, -0.97, 86.117, 135.082)">
              <path id="Path-9-2" data-name="Path" d="M63.947,71.613q.805-.738.3-2.447a1.54,1.54,0,0,0,1.925-.279,1.9,1.9,0,0,0,.178-2.159q1.313.234,1.653-1.2a5.716,5.716,0,0,0-1.517-4.5,11.541,11.541,0,0,0-3.858-3.374q-4.576-2.646-7.171-2.842L42.266,19.43a31.9,31.9,0,0,0-5.117-8.952Q26.114-3.124,16.933.932,6.291,5.633,0,11.25L12.238,25.134l8.585-6.251q16.3,25.371,25.126,38.775,2.393,3.633,7.855,11.168a19.483,19.483,0,0,0,1.935,2.48L66.171,82.651a.925.925,0,0,0,1.413-.061,1.588,1.588,0,0,0,.094-1.8L62.1,71.756A1.435,1.435,0,0,0,63.947,71.613Z" transform="translate(0 0)" fill="#ffc4c4" fill-rule="evenodd"/>
              <path id="Path-12-2" data-name="Path-12" d="M0,11.138q2.85,1.967,4.668.983c1.008-.545,1.717-2.168,2.7-4.06C8.154,6.54,9.337,4.7,9.337,4.215c0-1.082-1.875-.683-3.219.487Q4.774,5.872,3.841,6.815,2.976,1.984.8,0" transform="translate(55.541 58.987)" fill-rule="evenodd" fill="url(#linear-gradient-14)"/>
            </g>
            <path id="Path-35" d="M20.941,0A43.217,43.217,0,0,0,13.99,9.246Q11.969,13.21,0,35.217L18.568,46.7l23.61-32.4Z" transform="translate(64.525 82.62)" fill="#53c5cd" fill-rule="evenodd"/>
            <g id="Group-31" transform="translate(50.102 97.982) rotate(-26)">
              <path id="Rectangle-11" data-name="Rectangle" d="M2.335,0H25.587a2.334,2.334,0,0,1,2.289,1.877L34.72,36.111A2.334,2.334,0,0,1,32.431,38.9H9.179A2.334,2.334,0,0,1,6.89,37.026L.046,2.792A2.334,2.334,0,0,1,2.335,0Z" transform="translate(1.556)" fill="#fff" fill-rule="evenodd"/>
              <path id="Rectangle-Copy-5" d="M2.335,0H25.587a2.334,2.334,0,0,1,2.289,1.877L34.72,36.111A2.334,2.334,0,0,1,32.431,38.9H9.179A2.334,2.334,0,0,1,6.89,37.026L.046,2.792A2.334,2.334,0,0,1,2.335,0Z" transform="translate(0)" fill-rule="evenodd" fill="url(#linear-gradient-15)"/>
              <ellipse id="Oval-5" data-name="Oval" cx="0.778" cy="1.167" rx="0.778" ry="1.167" transform="translate(24.886 5.192) rotate(153)" fill="#fff"/>
            </g>
            <path id="Path-34" d="M57.538,17.512,27,17.554q-7.087.257-10.434-.671a13.279,13.279,0,0,0-4.289-.516q1.768,1.067,3.317,2.072-4.243,0-15.343,8.46a.644.644,0,0,0-.048.984,1.088,1.088,0,0,0,1.209.184A6.637,6.637,0,0,1,4.63,27.3c3.12.189,6.287,1.828,8.929,2.105q3.937.414,13.5-2.1l34.35,6.986A13.812,13.812,0,0,0,75.2,29.072a14.882,14.882,0,0,0,1.741-14.938L70.734,0h0L54.159,8.615Z" transform="translate(86.552 83.564) rotate(27)" fill="#ffc4c4" fill-rule="evenodd"/>
            <path id="Rectangle-12" data-name="Rectangle" d="M11.282,0A11.282,11.282,0,0,1,22.564,11.282V52.13H0V11.282A11.282,11.282,0,0,1,11.282,0Z" transform="translate(128.488 63.946)" fill="#53c5cd" fill-rule="evenodd"/>
          </g>
        </g>
      </g>
      <g id="Plant-3" transform="translate(480.555 187.078)">
        <g id="Group-72-Copy-2" transform="translate(0 82.234)">
          <path id="Rectangle-13" data-name="Rectangle" d="M16.691,0A13.364,13.364,0,0,1,29.434,17.39L14.716,63.971A5.908,5.908,0,0,1,8.934,68.1,4.981,4.981,0,0,1,4.1,63.558L.066,18.166A16.69,16.69,0,0,1,15.214.065Q15.951,0,16.691,0Z" transform="translate(0 12.702) rotate(-25)" fill="#ffcd6c" fill-rule="evenodd"/>
          <path id="Path-115" d="M37.681,109.873a159.249,159.249,0,0,0-2.937-19.786c-1.509-7.323-3.582-15.514-6.161-24.343-5.159-17.667-12.561-38.638-22-62.331l.669-.266c9.446,23.714,16.855,44.707,22.02,62.4,2.584,8.848,4.661,17.058,6.175,24.4a159.966,159.966,0,0,1,2.95,19.877Z" transform="translate(7.786 3.07)" fill="#111b2a"/>
        </g>
        <g id="Group-71" transform="translate(16.862 163.474)">
          <rect id="Rectangle-14" data-name="Rectangle" width="69.071" height="46.16" rx="8.316" transform="translate(0 7.693)" fill="#97dade"/>
          <rect id="Rectangle-Copy-19" width="53.722" height="10.258" rx="2.379" transform="translate(7.675 0)" fill="#60bbc1"/>
        </g>
        <g id="Group-72" transform="translate(6.209 30.237)">
          <path id="Rectangle-15" data-name="Rectangle" d="M16.691,0A13.364,13.364,0,0,1,29.434,17.39L14.716,63.971A5.908,5.908,0,0,1,8.934,68.1,4.981,4.981,0,0,1,4.1,63.558L.066,18.166A16.69,16.69,0,0,1,15.214.065Q15.951,0,16.691,0Z" transform="translate(0 12.702) rotate(-25)" fill="#ffcd6c" fill-rule="evenodd"/>
          <path id="Path-115-2" data-name="Path-115" d="M32.19,129.726l-.717-.062A231.589,231.589,0,0,0,32,97.507a228.179,228.179,0,0,0-3.968-31.755A238.478,238.478,0,0,0,19.567,34.4,263.1,263.1,0,0,0,6.6,3.439l.645-.319A263.819,263.819,0,0,1,20.248,34.163a239.2,239.2,0,0,1,8.494,31.45,228.9,228.9,0,0,1,3.981,31.855A232.315,232.315,0,0,1,32.19,129.726Z" transform="translate(7.786 3.07)" fill="#111b2a"/>
        </g>
        <g id="Group-72-Copy" transform="matrix(-0.966, 0.259, -0.259, -0.966, 111.151, 147.727)">
          <path id="Rectangle-16" data-name="Rectangle" d="M16.691,68.1a13.364,13.364,0,0,0,12.743-17.39L14.716,4.128A5.908,5.908,0,0,0,8.934,0,4.981,4.981,0,0,0,4.1,4.541L.066,49.933a16.69,16.69,0,0,0,15.148,18.1Q15.951,68.1,16.691,68.1Z" transform="translate(28.78 78.518) rotate(25)" fill="#ffcd6c" fill-rule="evenodd"/>
          <path id="Path-115-3" data-name="Path-115" d="M.341,146.706l-.681-.234C11.6,111.67,21.378,81.7,28.727,57.383S41.2,13.747,43.96-.071l.706.141c-2.765,13.84-7.9,33.193-15.25,57.521S12.282,111.9.341,146.706Z" transform="translate(14.705 0)" fill="#111b2a"/>
        </g>
        <path id="Rectangle-Copy-22" d="M14.266,0A15.4,15.4,0,0,1,29.449,17.98L22.216,60.546a6.434,6.434,0,0,1-5.2,5.254,4.822,4.822,0,0,1-5.534-3.583L.424,17.7A14.262,14.262,0,0,1,14.266,0Z" transform="translate(64.129 70.755) rotate(17)" fill="#ffcd6c" fill-rule="evenodd"/>
        <path id="Path-116" d="M26.643,122.674l-.712-.106a409.751,409.751,0,0,1,9.944-48.4A232.735,232.735,0,0,1,49.887,35.706l.649.311A232.017,232.017,0,0,0,36.57,74.357,409.029,409.029,0,0,0,26.643,122.674Z" transform="translate(30.17 40.38)" fill="#111b2a"/>
      </g>
    </g>
  </g>
</svg>
