<?xml version="1.0" standalone="no"?>
<!DOCTYPE svg PUBLIC "-//W3C//DTD SVG 20010904//EN"
 "http://www.w3.org/TR/2001/REC-SVG-20010904/DTD/svg10.dtd">
<svg version="1.0" xmlns="http://www.w3.org/2000/svg"
 width="816.000000pt" height="816.000000pt" viewBox="0 0 816.000000 816.000000"
 preserveAspectRatio="xMidYMid meet">
<metadata>
Created by potrace 1.14, written by Peter Selinger 2001-2017
</metadata>
<g transform="translate(0.000000,816.000000) scale(0.100000,-0.100000)"
fill="#000000" stroke="none">
<path d="M3280 7679 c-56 -17 -96 -54 -112 -101 -7 -24 -13 -50 -12 -58 2 -28
16 -70 24 -70 4 0 11 -8 14 -17 6 -14 -13 -35 -34 -38 -48 -7 -118 -33 -150
-56 -102 -74 -99 -217 7 -309 60 -52 60 -55 -13 -79 -119 -39 -228 -125 -240
-188 -13 -71 0 -104 70 -168 l65 -60 -61 -35 c-79 -46 -94 -73 -75 -143 8 -29
17 -59 21 -67 4 -11 -32 -67 -115 -175 -66 -87 -126 -164 -133 -170 -12 -13
-41 -48 -184 -230 -130 -166 -312 -341 -441 -423 -68 -43 -88 -49 -226 -67
-215 -27 -444 -122 -605 -250 -91 -72 -252 -253 -327 -365 -108 -163 -325
-573 -383 -725 -13 -33 -26 -64 -30 -70 -9 -12 -84 -241 -101 -305 -36 -142
-31 -196 25 -258 32 -34 36 -36 92 -33 33 1 70 3 83 4 25 2 26 1 34 -78 15
-140 93 -206 217 -182 18 3 73 37 113 69 33 27 43 18 50 -42 8 -65 12 -82 42
-143 33 -72 84 -117 130 -117 52 0 106 29 153 82 21 23 29 16 56 -45 34 -77
55 -92 135 -93 97 -2 99 -2 118 -22 37 -37 182 -135 304 -207 28 -16 57 -36
64 -43 8 -6 16 -12 19 -12 5 0 120 -71 141 -87 6 -5 28 -18 50 -30 145 -77
225 -126 225 -135 0 -5 4 -8 10 -8 9 0 71 -43 123 -86 9 -8 22 -14 27 -14 6 0
10 -4 10 -8 0 -4 15 -16 33 -27 17 -10 37 -24 42 -30 6 -6 37 -31 69 -55 32
-25 100 -81 150 -125 84 -74 111 -101 188 -188 15 -18 89 -153 164 -302 129
-256 169 -321 239 -390 60 -59 152 -135 163 -135 7 0 12 -4 12 -10 0 -5 7 -10
15 -10 8 0 15 -4 15 -10 0 -5 6 -10 14 -10 8 0 16 -3 18 -7 10 -24 460 -244
575 -281 74 -25 203 -57 363 -92 19 -5 78 -18 130 -29 52 -12 106 -24 120 -27
14 -2 50 -10 80 -16 30 -6 64 -12 75 -13 11 -1 36 -5 55 -8 61 -11 169 -19
269 -21 l96 -2 34 35 c18 20 39 47 46 61 18 34 13 124 -8 144 -26 26 -12 40
71 70 43 16 90 39 104 51 102 87 66 245 -75 325 -49 28 -49 28 -26 41 13 7 25
12 27 11 10 -8 133 34 182 62 95 55 126 121 95 199 -16 40 -70 107 -87 107 -5
0 -22 12 -39 27 l-30 27 53 26 c91 43 114 104 73 195 -10 22 -20 48 -22 58 -3
17 70 159 132 258 14 21 25 41 25 43 0 17 180 280 209 306 3 3 24 28 46 55 51
64 148 162 202 203 67 52 217 137 310 176 49 21 97 41 108 46 11 6 74 28 140
51 180 62 246 91 280 124 13 14 27 25 29 25 13 0 149 128 186 176 36 45 109
153 136 199 15 28 31 52 34 55 3 3 23 41 45 85 22 44 45 83 50 87 6 4 6 8 2 8
-5 0 -1 12 7 27 20 36 59 124 87 193 37 93 170 483 176 515 3 17 8 35 12 40 8
10 64 200 77 260 4 17 8 66 10 110 3 71 0 84 -21 117 -47 72 -117 93 -186 57
-21 -10 -42 -19 -48 -19 -5 0 -13 26 -19 58 -14 80 -15 81 -37 126 -24 49 -65
74 -130 80 -61 6 -137 -24 -153 -60 -7 -13 -16 -24 -22 -24 -5 0 -9 -3 -8 -7
3 -12 -43 -96 -49 -89 -3 3 -8 27 -10 53 -10 112 -17 141 -50 201 -34 60 -62
91 -103 112 -36 18 -46 17 -90 -3 -32 -15 -96 -79 -115 -117 -24 -47 -38 -37
-51 36 -7 36 -52 101 -75 107 -31 8 -71 -1 -134 -33 l-58 -29 -32 28 c-17 15
-56 50 -86 78 -157 148 -221 204 -324 283 -39 30 -108 84 -152 120 -44 36 -94
76 -113 90 -155 117 -228 178 -313 262 -73 72 -113 145 -177 318 -74 201 -185
409 -262 491 -35 37 -83 78 -173 147 -99 77 -316 201 -414 237 -20 8 -61 23
-91 35 -73 28 -318 111 -343 116 -10 2 -25 8 -33 15 -8 6 -14 9 -14 5 0 -3
-12 -1 -27 5 -16 6 -35 12 -43 14 -18 4 -108 29 -164 45 -21 7 -46 13 -55 15
-9 2 -43 11 -76 20 -56 16 -106 28 -165 41 -14 2 -32 7 -40 9 -8 3 -33 7 -55
11 -22 3 -43 8 -47 10 -16 10 -177 12 -208 3z m-343 -1514 c32 -20 65 -40 73
-46 8 -5 76 -43 150 -85 74 -42 142 -82 151 -90 8 -8 18 -14 21 -14 3 0 36
-18 72 -40 36 -22 68 -40 71 -40 2 0 64 -40 137 -89 184 -123 301 -241 321
-322 5 -20 -1 -38 -25 -73 -41 -62 -220 -243 -333 -337 -49 -41 -99 -83 -110
-94 -11 -11 -36 -32 -55 -47 -67 -50 -290 -280 -290 -298 0 -6 -4 -10 -10 -10
-10 0 -45 -69 -55 -110 -3 -14 -7 -53 -9 -88 -2 -35 -7 -66 -10 -69 -3 -3 -1
-13 4 -23 5 -10 7 -20 3 -23 -3 -3 -7 -79 -9 -169 -9 -405 -25 -569 -63 -628
-34 -54 -102 -101 -150 -102 -44 -1 -85 27 -167 118 -153 169 -203 204 -287
204 -70 0 -148 -59 -361 -274 -105 -106 -222 -228 -261 -271 -38 -43 -87 -96
-108 -119 -20 -23 -73 -92 -118 -154 -47 -65 -93 -119 -110 -128 -65 -33 -115
2 -123 86 -4 48 7 82 57 157 15 24 27 45 27 47 0 3 34 65 76 138 42 73 91 160
109 193 50 93 105 196 130 240 103 185 121 228 101 244 -18 15 -46 -17 -100
-114 -24 -44 -80 -146 -125 -227 -44 -81 -81 -152 -81 -157 0 -6 -4 -11 -10
-11 -5 0 -10 -7 -10 -15 0 -8 -4 -15 -8 -15 -5 0 -14 -11 -20 -25 -10 -21
-104 -149 -122 -165 -22 -20 -80 -104 -100 -145 -27 -55 -140 -175 -166 -175
-33 0 -72 35 -102 91 -28 53 -31 66 -28 136 4 109 31 171 172 408 39 67 84
143 99 170 14 28 38 70 52 95 54 96 123 239 123 254 0 19 -17 21 -33 4 -24
-25 -91 -133 -197 -317 -102 -178 -157 -266 -234 -376 -19 -27 -41 -58 -48
-68 -7 -11 -21 -29 -32 -40 -10 -12 -29 -36 -42 -53 -32 -42 -115 -86 -149
-80 -35 7 -52 29 -66 91 -11 48 -8 161 5 215 9 39 91 204 154 309 31 53 62
105 68 116 6 11 37 65 69 120 98 170 126 246 95 252 -17 4 -58 -55 -113 -159
-38 -73 -118 -210 -127 -218 -19 -18 -93 -142 -142 -240 -104 -203 -184 -272
-252 -219 -25 20 -27 26 -25 87 3 83 38 236 76 332 3 8 7 20 8 26 2 7 19 47
40 90 20 44 46 102 58 129 34 82 159 330 169 336 6 3 8 8 6 11 -4 6 78 147
150 256 124 190 234 308 374 401 106 71 259 150 303 156 17 2 50 9 75 16 25 6
56 13 70 15 85 14 182 38 230 56 66 24 120 50 120 58 0 3 14 14 32 25 43 25
133 106 292 261 6 6 22 26 36 44 14 18 31 39 38 46 6 7 12 17 12 23 0 6 4 11
8 11 4 0 16 13 25 30 10 16 23 35 30 42 7 7 25 30 40 51 16 20 38 48 50 61 12
13 36 41 52 62 17 21 35 42 40 48 6 6 46 57 88 113 113 149 122 153 224 88z
m3938 -877 c27 -24 33 -43 40 -118 2 -25 5 -47 5 -50 9 -29 -1 -84 -19 -109
-12 -17 -19 -31 -15 -31 3 0 2 -6 -4 -12 -24 -30 -182 -357 -235 -488 -18 -47
-38 -94 -42 -105 -5 -11 -9 -22 -10 -25 -1 -3 -4 -12 -7 -20 -21 -56 -50 -144
-53 -161 -2 -11 -7 -30 -11 -41 -4 -15 -2 -19 7 -16 12 4 42 66 87 178 67 165
86 211 101 245 10 22 33 74 51 115 19 41 39 82 45 90 6 8 20 33 30 55 11 22
22 42 25 45 12 12 45 73 92 170 85 178 160 280 206 280 5 0 30 -19 54 -42 65
-63 92 -127 100 -243 1 -24 -12 -101 -27 -152 -9 -31 -51 -126 -94 -212 -43
-86 -93 -192 -111 -236 -17 -44 -36 -89 -41 -100 -24 -52 -59 -172 -59 -199
l1 -31 19 24 c11 13 20 29 20 36 0 15 103 269 126 308 8 15 13 27 10 27 -3 0
18 39 47 88 29 48 58 98 65 112 7 14 23 43 36 65 13 22 51 94 86 160 66 125
122 194 162 196 50 3 74 -1 98 -19 71 -53 87 -198 37 -332 -16 -41 -32 -83
-38 -92 -5 -10 -9 -22 -9 -28 0 -5 -11 -33 -24 -62 -13 -29 -50 -111 -81 -183
-32 -71 -64 -146 -73 -165 -9 -19 -16 -37 -17 -40 -4 -20 -23 -68 -57 -144
-22 -49 -36 -92 -31 -97 20 -20 38 10 133 231 34 80 71 165 82 190 11 25 25
59 33 75 63 144 123 265 163 330 26 41 89 104 107 106 6 0 18 2 28 4 9 2 17
-1 17 -5 0 -5 8 -11 18 -14 35 -12 60 -75 57 -146 -2 -36 -7 -76 -13 -90 -5
-14 -10 -27 -10 -30 0 -3 -5 -25 -12 -50 -7 -25 -13 -52 -15 -60 -2 -8 -20
-67 -41 -130 -21 -63 -38 -117 -39 -120 -5 -27 -140 -401 -164 -455 -5 -11
-20 -45 -32 -75 -38 -91 -152 -311 -194 -375 -52 -79 -74 -105 -170 -198 -164
-161 -247 -210 -505 -298 -188 -63 -296 -112 -392 -176 -40 -26 -75 -50 -78
-53 -3 -3 -23 -18 -45 -35 -86 -63 -185 -179 -318 -373 -31 -45 -57 -85 -57
-88 0 -3 -10 -20 -23 -37 -34 -49 -47 -70 -53 -89 -4 -10 -10 -18 -14 -18 -4
0 -10 -8 -14 -17 -3 -10 -32 -61 -65 -113 -59 -94 -60 -95 -98 -94 -20 1 -39
7 -41 13 -2 6 -8 11 -14 11 -5 0 -22 8 -36 19 -15 10 -88 49 -162 88 -75 38
-183 97 -241 131 -58 34 -111 62 -117 62 -6 0 -12 3 -14 8 -5 11 -95 72 -107
72 -6 0 -11 4 -11 9 0 5 -11 12 -24 15 -13 3 -47 22 -76 41 -29 19 -54 35 -56
35 -5 0 -25 15 -55 43 -10 9 -21 17 -24 17 -10 0 -51 48 -62 73 -15 32 -17 80
-4 105 5 9 19 37 31 62 20 40 126 195 155 226 16 18 37 45 84 109 25 33 48 62
53 63 4 2 8 8 8 13 0 8 51 80 70 99 3 3 10 12 15 22 6 9 49 74 97 145 98 146
147 234 155 284 10 61 5 241 -13 465 -8 102 -8 289 0 352 20 143 179 238 258
153 15 -16 28 -33 28 -36 0 -4 21 -29 48 -57 53 -56 150 -128 201 -148 41 -16
151 -21 169 -7 6 5 12 6 12 3 0 -13 85 53 131 101 97 102 245 299 402 538 37
55 70 105 74 110 15 18 64 110 84 155 12 25 27 60 35 78 18 39 47 67 94 92 45
24 44 24 75 -2z m-3210 -305 c4 -16 13 -40 20 -54 8 -14 12 -28 9 -31 -2 -3
22 -30 55 -60 87 -81 117 -89 320 -83 91 3 182 7 201 9 19 2 67 7 105 10 39 4
77 9 85 11 8 2 40 6 70 10 59 6 71 8 195 30 162 28 247 38 336 39 63 1 68 -1
124 -44 69 -53 265 -244 265 -258 0 -6 -27 -21 -60 -34 -98 -38 -154 -103
-166 -195 -14 -99 -8 -390 12 -603 1 -19 6 -71 9 -115 4 -44 8 -82 10 -84 5
-5 -28 -64 -129 -226 -45 -71 -86 -137 -91 -146 -9 -15 -118 -156 -178 -231
-12 -16 -24 -28 -27 -28 -3 0 -16 22 -29 49 -28 56 -90 125 -135 148 -33 17
-146 22 -251 10 -33 -4 -87 -9 -119 -13 -33 -3 -69 -8 -80 -10 -28 -6 -82 -15
-115 -19 -14 -2 -26 -4 -26 -5 0 -1 -11 -3 -25 -6 -14 -2 -47 -8 -75 -14 -27
-5 -70 -12 -95 -15 -25 -3 -52 -8 -60 -10 -8 -2 -31 -7 -50 -10 -19 -3 -62
-13 -94 -21 -123 -32 -243 -39 -310 -19 -66 20 -166 66 -166 76 0 5 -5 9 -10
9 -12 0 -200 136 -216 156 -6 8 -15 14 -20 14 -5 0 -34 22 -64 49 l-54 49 48
22 c85 38 135 100 151 185 2 11 4 20 5 20 1 0 3 9 4 20 13 104 17 141 22 209
2 43 7 169 10 280 5 237 8 296 19 356 10 56 37 120 67 156 52 63 311 314 324
314 2 0 12 8 22 18 16 16 81 69 121 99 24 18 30 16 36 -14z m-1228 -1378 c14
-9 93 -85 177 -168 83 -84 172 -165 196 -182 25 -16 47 -32 50 -35 3 -3 21
-17 40 -30 19 -13 37 -27 40 -30 3 -3 32 -25 65 -50 33 -25 62 -48 63 -52 2
-5 10 -8 18 -8 8 0 14 -4 14 -8 0 -5 12 -15 27 -23 15 -8 35 -20 45 -28 37
-32 141 -81 188 -89 68 -12 293 -10 311 4 29 22 136 54 204 60 48 4 99 12 220
34 62 11 138 22 167 25 30 3 69 8 88 10 19 3 91 7 160 10 118 4 128 3 158 -18
44 -30 95 -136 89 -183 -5 -35 -35 -86 -80 -134 -12 -14 -36 -43 -52 -65 -17
-22 -34 -43 -38 -46 -5 -3 -8 -9 -8 -13 1 -3 -5 -19 -12 -34 -28 -55 -42 -157
-27 -197 21 -55 160 -170 311 -255 15 -8 77 -45 138 -82 61 -38 113 -68 116
-68 2 0 26 -13 52 -28 26 -16 95 -53 153 -83 58 -29 107 -56 110 -60 3 -3 22
-12 43 -20 20 -7 37 -17 37 -21 0 -4 5 -8 11 -8 35 0 209 -137 209 -164 -1
-61 -57 -99 -145 -98 -33 0 -71 3 -85 6 -118 24 -218 49 -275 67 -16 5 -79 23
-140 39 -60 17 -114 32 -120 34 -5 2 -13 4 -17 5 -11 2 -86 30 -123 46 -82 36
-315 79 -315 58 0 -16 15 -28 50 -41 62 -23 354 -124 385 -132 17 -5 71 -20
120 -35 95 -27 112 -32 146 -40 36 -7 93 -27 114 -38 11 -6 22 -12 25 -13 3 0
12 -3 20 -7 8 -3 58 -20 110 -37 182 -60 285 -143 272 -218 -5 -31 -61 -71
-132 -93 -87 -27 -104 -30 -207 -34 -92 -4 -191 14 -268 50 -39 18 -360 125
-392 131 -13 3 -45 12 -71 20 -55 19 -79 24 -152 31 -55 5 -55 5 -36 -15 10
-12 37 -28 60 -36 22 -8 73 -27 111 -41 39 -14 81 -28 95 -31 23 -5 136 -43
320 -108 81 -29 90 -32 105 -36 39 -9 265 -109 275 -121 3 -3 16 -12 28 -18
53 -28 113 -100 119 -143 4 -28 -62 -93 -118 -117 -79 -34 -182 -23 -354 38
-67 24 -119 40 -375 111 -96 27 -217 61 -267 76 -51 15 -96 24 -100 20 -31
-30 110 -104 280 -145 72 -18 159 -39 192 -47 33 -9 69 -17 80 -19 26 -4 175
-54 199 -67 10 -6 32 -12 48 -15 75 -12 188 -103 188 -152 0 -37 -35 -90 -67
-102 -67 -25 -325 10 -713 97 -14 3 -32 7 -40 9 -8 2 -71 17 -140 35 -69 18
-132 33 -140 35 -49 10 -76 19 -87 28 -7 5 -13 7 -13 4 0 -7 -98 27 -157 54
-23 10 -44 19 -47 19 -3 0 -27 15 -53 34 -27 19 -116 69 -200 112 -162 84
-189 103 -296 204 -91 85 -155 178 -207 298 -74 170 -171 364 -190 382 -3 3
-17 21 -29 40 -29 42 -206 220 -220 220 -5 0 -11 4 -13 8 -13 33 -445 324
-668 450 -122 69 -383 239 -388 254 -2 4 -8 8 -13 8 -6 0 -15 4 -22 10 -7 5
-37 29 -67 53 -30 24 -60 54 -67 67 -15 30 -2 56 75 148 31 38 68 84 82 102
14 18 30 38 36 44 6 6 15 19 20 28 23 41 286 316 405 423 180 163 221 182 286
140z"/>
<path d="M3284 4288 c-3 -4 -5 -18 -4 -31 1 -12 2 -24 1 -27 -5 -14 -5 -160
-1 -160 3 0 4 -21 2 -47 -5 -102 -4 -161 2 -171 3 -6 2 -13 -3 -17 -6 -3 -7
-15 -3 -28 8 -21 8 -34 2 -82 -1 -11 -2 -34 -1 -51 l1 -30 173 -1 172 -1 0 52
c0 58 12 53 -132 55 l-92 1 1 94 c0 52 -3 99 -6 105 -4 6 -4 11 1 11 4 0 7 57
5 127 -1 71 -3 139 -3 153 0 14 1 32 3 39 2 10 -12 14 -55 16 -32 1 -60 -2
-63 -7z"/>
<path d="M3952 4290 c-11 -8 -9 -634 3 -642 6 -5 33 -7 61 -6 l50 1 0 326 -1
325 -53 1 c-29 0 -56 -2 -60 -5z"/>
<path d="M4462 4291 c-9 -6 -17 -80 -28 -246 -2 -44 -7 -102 -9 -130 -3 -27
-7 -94 -10 -148 -3 -55 -7 -104 -8 -110 -3 -17 78 -20 92 -4 6 8 13 45 16 83
2 38 5 69 6 69 0 0 2 23 4 50 11 192 16 250 26 260 6 6 9 6 8 0 -2 -5 0 -23 4
-40 4 -16 9 -39 12 -50 2 -11 21 -81 41 -155 36 -136 43 -164 48 -188 4 -21
22 -28 65 -24 35 3 41 8 46 33 4 16 7 32 7 36 0 5 3 13 8 18 4 6 11 26 16 45
4 19 9 40 10 45 1 6 17 55 34 110 18 55 37 117 42 138 12 44 22 40 25 -11 2
-39 14 -306 16 -382 l2 -45 57 -3 57 -2 -4 72 c-3 40 -7 100 -10 133 -2 33 -7
112 -9 175 -3 63 -6 115 -6 115 -1 0 -3 33 -4 73 -2 40 -6 75 -10 79 -7 7
-137 6 -144 -1 -2 -2 -10 -28 -18 -57 -19 -66 -55 -200 -58 -214 -2 -5 -9 -30
-16 -55 -8 -25 -14 -47 -15 -50 -1 -3 -5 -22 -9 -42 -7 -34 -26 -54 -26 -28 0
16 -2 23 -11 48 -5 12 -11 33 -13 45 -2 13 -14 56 -25 97 -12 41 -28 98 -36
125 -7 28 -19 70 -27 95 l-13 45 -62 1 c-35 0 -67 -2 -71 -5z"/>
<path d="M3754 3778 c-47 -25 -58 -79 -24 -116 12 -12 24 -22 28 -23 4 0 15
-2 24 -4 43 -8 76 55 54 105 -17 40 -49 55 -82 38z"/>
<path d="M4215 3765 c-48 -45 -21 -125 44 -127 37 -1 58 16 65 53 5 29 -20 89
-38 90 -6 0 -19 2 -28 4 -9 2 -29 -8 -43 -20z"/>
</g>
</svg>
